<?xml version="1.0" encoding="UTF-8"?>
<!-- Generator: visioncortex VTracer 0.6.12 -->
<svg version="1.1" xmlns="http://www.w3.org/2000/svg" width="1492" height="872" viewBox="0 0 1492 872">
<path d="M0 0 C22.5576228 8.00431777 43.57485181 26.99557768 60.15234375 43.81616211 C61.88634976 45.57400579 63.6335675 47.31787981 65.3828125 49.06054688 C71.6995307 55.39233584 77.62721069 61.82989933 83 69 C83.54462891 69.72147217 84.08925781 70.44294434 84.65039062 71.1862793 C86.22449255 73.29790896 87.77389534 75.42488729 89.3125 77.5625 C89.86301025 78.32699463 90.41352051 79.09148926 90.98071289 79.87915039 C99.02491471 91.14149532 106.69636084 102.66140138 113 115 C113.34160156 115.65613281 113.68320312 116.31226563 114.03515625 116.98828125 C116.14962112 121.12304454 118.07298516 125.33751997 120 129.5625 C125.82927595 142.2195173 125.82927595 142.2195173 130 145 C132.03930664 145.27124023 132.03930664 145.27124023 134.41015625 145.30859375 C135.30452393 145.33171631 136.1988916 145.35483887 137.12036133 145.37866211 C137.60581421 145.38837036 137.60581421 145.38837036 140.0625 145.4375 C152.14250417 145.81515028 164.01662726 147.13647491 176.00146484 148.63574219 C178.78667579 148.97408568 181.57254824 149.28152545 184.36328125 149.5703125 C185.17563232 149.65482666 185.9879834 149.73934082 186.82495117 149.82641602 C188.28955169 149.97674705 189.75453085 150.12346494 191.2199707 150.26538086 C195.27647109 150.69103515 199.06422782 151.48787535 202.99121094 152.52514648 C206.96705574 153.46498826 211.03100679 153.78842694 215.08789062 154.2109375 C219.57395796 154.71665549 223.67913372 155.7188129 228 157 C229.89013648 157.3452888 231.78636127 157.65909056 233.6875 157.9375 C239.89998072 158.92496565 245.92033751 160.40191729 252 162 C253.33275059 162.3356557 254.66602068 162.66926133 256 163 C256.61488281 163.1546875 257.22976563 163.309375 257.86328125 163.46875 C259.56728574 163.89241474 261.27351874 164.3071133 262.98046875 164.71875 C263.50962891 164.84765625 263.50962891 164.84765625 266.1875 165.5 C267.17105469 165.7371875 268.15460938 165.974375 269.16796875 166.21875 C272 167 272 167 274.48828125 168.01171875 C277.30319407 169.1192972 280.03692614 169.7087737 283 170.3125 C288.89599576 171.62346068 294.28971698 173.55916655 299.8828125 175.8125 C302.74163882 176.90157669 305.53862373 177.74463446 308.5 178.5 C313.82215995 179.86545212 318.8367219 181.79227157 323.94140625 183.8125 C326.46724652 184.79315829 328.98218057 185.67877718 331.5625 186.5 C336.20701093 188.00263589 340.66171439 189.90497602 345.15234375 191.8125 C347.46195365 192.77562951 349.76852139 193.66214094 352.125 194.5 C356.04561259 195.93456926 359.70810902 197.79688854 363.41015625 199.71875 C365.9438066 200.97219995 368.51622532 202.09045392 371.11889648 203.19189453 C382.09177779 207.9057475 392.72916303 213.30965711 403.20800781 219.02539062 C405.0172568 220.00938544 406.83181092 220.9828258 408.6484375 221.953125 C413.49473198 224.54507576 418.30339954 227.14416391 423 230 C423.75539063 230.44859375 424.51078125 230.8971875 425.2890625 231.359375 C430.66012958 234.55686644 435.9601373 237.84962517 441.22265625 241.22265625 C443.03787786 242.38429596 444.85801985 243.53829193 446.68359375 244.68359375 C452.90394726 248.59275641 458.9454751 252.70427373 464.9609375 256.91796875 C467.53677294 258.68264778 470.13518324 260.33394809 472.8125 261.9375 C473.864375 262.618125 474.91625 263.29875 476 264 C476 264.66 476 265.32 476 266 C476.53625 266.268125 477.0725 266.53625 477.625 266.8125 C480.41666667 268.20833333 483.20833333 269.60416667 486 271 C486 271.66 486 272.32 486 273 C486.5671875 273.26039063 487.134375 273.52078125 487.71875 273.7890625 C490.20474595 275.10868364 492.28605357 276.63872009 494.5 278.375 C495.2528125 278.96023438 496.005625 279.54546875 496.78125 280.1484375 C498.99891738 281.99909654 501.05631575 283.86238807 503 286 C503.0625 287.9375 503.0625 287.9375 502 290 C500.34214372 291.67543073 498.67368412 293.34038046 497 295 C496.05124227 296.03104374 495.10995046 297.06900145 494.17578125 298.11328125 C493.70462891 298.63857422 493.23347656 299.16386719 492.74804688 299.70507812 C491.77610838 300.79338477 490.80744681 301.88462532 489.84179688 302.97851562 C488.60114589 304.35606603 487.30457158 305.68282386 486 307 C485.34 307 484.68 307 484 307 C483.79375 307.721875 483.5875 308.44375 483.375 309.1875 C481.91325119 312.17744074 480.2880584 313.55373236 477.6953125 315.5703125 C475.15148493 317.71556801 473.09102651 320.21371665 470.9375 322.7421875 C468.00383888 326.16084904 464.9535157 329.47265146 461.91796875 332.80078125 C458 337.29327902 458 337.29327902 458 340 C459.51915772 343.03831544 461.93171849 343.88978537 465 345 C469.21873518 346.03086595 473.47572805 346.79958096 477.75 347.5625 C480.01567431 347.98020137 482.28130003 348.39816643 484.546875 348.81640625 C485.63564941 349.01524414 486.72442383 349.21408203 487.84619141 349.41894531 C490.77807063 349.95911195 493.7068391 350.51077231 496.6328125 351.08203125 C497.01896729 351.15732056 497.01896729 351.15732056 498.97314453 351.53833008 C501.4402972 352.10028933 503.70835901 352.93056754 506 354 C506 358.39219987 505.70163817 358.86082444 503.0625 362.0625 C502.74539063 362.45244141 502.74539063 362.45244141 501.140625 364.42578125 C500.43421875 365.27527344 499.7278125 366.12476563 499 367 C497.43738016 368.91656896 495.87488176 370.83323695 494.3125 372.75 C493.58675781 373.63171875 492.86101562 374.5134375 492.11328125 375.421875 C490.65910734 377.19591341 489.24146522 379.00032637 487.85546875 380.828125 C487.24316406 381.54484375 486.63085938 382.2615625 486 383 C485.34 383 484.68 383 484 383 C483.7834375 383.53367187 483.566875 384.06734375 483.34375 384.6171875 C481.51052552 387.86796346 479.04518987 390.42817842 476.5 393.125 C475.96536133 393.69686035 475.43072266 394.2687207 474.87988281 394.85791016 C465.06118899 405.30884628 454.78996932 414.76511458 443.66796875 423.80078125 C441.33918172 425.72041097 439.0665953 427.68139947 436.8125 429.6875 C433.74951624 432.39777654 430.56995877 434.84470414 427.2734375 437.26171875 C423.37524625 440.24229453 419.66505335 443.45230205 415.9296875 446.6328125 C413.05226874 448.95776686 410.09496112 450.97746942 407 453 C405.22221479 454.2820816 403.45128183 455.57372096 401.6875 456.875 C397.49679608 459.9451337 393.24715747 462.87084934 388.875 465.67578125 C387 467 387 467 385.53125 468.51171875 C383.10238599 470.87242586 380.14084847 472.1667588 377.15625 473.71875 C375 475 375 475 373.5078125 476.51171875 C371.63739563 478.35790742 369.75746157 479.21202966 367.375 480.3125 C363.12803496 482.36808046 359.26857279 484.68273197 355.3984375 487.375 C348.8414033 491.81755086 342.18809948 495.48377833 335 498.8125 C333.13613987 499.68757014 331.2728639 500.56388556 329.41015625 501.44140625 C328.49508301 501.87211426 327.58000977 502.30282227 326.63720703 502.74658203 C322.87935362 504.53262345 319.15434506 506.38039178 315.4375 508.25 C314.79514404 508.57282959 314.15278809 508.89565918 313.4909668 509.22827148 C311.65973556 510.15039426 309.82960201 511.07464939 308 512 C305.77168103 513.12667813 303.54258379 514.25181911 301.3125 515.375 C300.40113281 515.83648438 299.48976563 516.29796875 298.55078125 516.7734375 C296.94465312 517.54575639 295.31487778 518.27226286 293.65869141 518.93041992 C291.03153306 519.98731438 288.47712018 521.14488194 285.91015625 522.33984375 C280.16484171 524.96553049 274.33152148 527.2943507 268.4375 529.5625 C266.49855592 530.31343553 264.55975263 531.06473473 262.62109375 531.81640625 C261.67991699 532.18008301 260.73874023 532.54375977 259.76904297 532.91845703 C257.11909202 533.9534846 254.48300723 535.01829385 251.84765625 536.08984375 C247.28768094 537.92033587 242.67312121 539.48711187 238 541 C236.32751397 541.55937429 234.65565902 542.12063829 232.984375 542.68359375 C224.40243872 545.56182567 215.82338222 548.42552005 207.15625 551.0390625 C204.16924066 551.94847376 201.19645533 552.89727748 198.22338867 553.85107422 C189.57034955 556.60917207 180.84172713 558.92844595 172 561 C171.54890869 561.10594482 171.54890869 561.10594482 169.26611328 561.64208984 C166.32453544 562.32962276 163.38144815 563.01019186 160.4375 563.6875 C159.50921387 563.90212891 158.58092773 564.11675781 157.62451172 564.33789062 C156.73650879 564.53962891 155.84850586 564.74136719 154.93359375 564.94921875 C154.08522949 565.14668701 153.23686523 565.34415527 152.36279297 565.54760742 C150 566 150 566 146.16015625 566.09375 C142.49289885 567.14542332 142.21819263 567.66530166 140.375 570.83203125 C139.55856237 572.48014668 138.76809367 574.14130671 138 575.8125 C137.14121519 577.55822382 136.28053755 579.30301776 135.41796875 581.046875 C135.21196045 581.47258789 135.21196045 581.47258789 134.16943359 583.62695312 C122.70821146 606.88438093 104.20845761 629.84610554 84 646 C83.34902344 646.65226563 82.69804688 647.30453125 82.02734375 647.9765625 C74.50742238 655.48199462 65.16233899 661.35739658 56.375 667.25 C55.51720947 667.8279834 54.65941895 668.4059668 53.77563477 669.00146484 C45.2905039 674.63129465 36.46104712 679.48683379 27.1875 683.6875 C23.67334035 685.29555002 20.17275609 686.91321063 16.71875 688.6484375 C13.84984155 690.07464774 11.051679 691.02115957 8 692 C6.35389632 692.62428762 4.708098 693.24938064 3.0625 693.875 C-14.90468914 700.4309291 -14.90468914 700.4309291 -23 700 C-24.25948236 696.22155292 -23.69701788 693.81643828 -23.125 689.875 C-22.29685447 683.95073132 -21.80766024 678.10036325 -21.5625 672.125 C-21.31333444 666.64396993 -20.59626169 661.84809116 -18.7578125 656.671875 C-17.54640909 652.40074132 -17.16713517 648.02889442 -16.73461914 643.61889648 C-16.32832654 639.73351416 -15.55289256 636.57104865 -14 633 C-13.45082448 630.70414122 -13.00558836 628.40423912 -12.5625 626.0859375 C-12 624 -12 624 -10 621 C-9.51489316 619.15771565 -9.08351719 617.30096738 -8.6875 615.4375 C-7.49131697 610.3795281 -5.74389791 606.28571498 -3.2722168 601.74389648 C-1.88557473 598.75320944 -1.10108672 595.89297171 -0.34375 592.6875 C-0.21581055 592.15318359 -0.21581055 592.15318359 0.43164062 589.44921875 C0.61919922 588.64097656 0.80675781 587.83273437 1 587 C-0.09538086 587.00523682 -1.19076172 587.01047363 -2.31933594 587.01586914 C-30.47892461 587.13798189 -58.45046393 587.25112907 -86.47265625 584.08666992 C-94.07296217 583.24247833 -101.60763663 582.72651169 -109.25 582.5 C-117.36534336 582.24792299 -125.04851764 581.34021162 -133.00390625 579.7578125 C-137.10683343 578.94589025 -141.22208061 578.41975868 -145.375 577.9375 C-149.74001578 577.42652745 -154.060589 576.84841314 -158.375 576 C-164.05862047 574.8943717 -169.78374951 574.3245691 -175.54443359 573.78515625 C-180.23576392 573.3148888 -184.46818246 572.36525546 -189 571 C-191.43106402 570.48918237 -193.86927539 570.01156621 -196.3125 569.5625 C-196.65579346 569.49861084 -196.65579346 569.49861084 -198.39306641 569.17529297 C-202.05814379 568.50177818 -205.7262595 567.87808026 -209.41015625 567.31640625 C-218.10158963 565.97904268 -226.46694873 564.23526197 -234.89990234 561.71337891 C-239.86065738 560.23948984 -244.78187448 559 -250 559 C-250.2784375 559.57621094 -250.556875 560.15242187 -250.84375 560.74609375 C-254.69650116 568.25635531 -259.95003579 574.3523856 -265.68359375 580.49609375 C-267.41984327 582.37288286 -269.0471764 584.24429203 -270.625 586.25 C-277.29464563 593.97274757 -285.86529367 599.90985923 -294 606 C-294.82371094 606.62003906 -295.64742187 607.24007812 -296.49609375 607.87890625 C-310.36361894 617.95800129 -325.76749504 625.34147595 -341.93359375 630.88671875 C-345 632 -345 632 -346.9387207 633.00708008 C-348.99853137 633.99929256 -350.8158037 634.52786021 -353.046875 635 C-353.81 635.165 -354.573125 635.33 -355.359375 635.5 C-356.14828125 635.665 -356.9371875 635.83 -357.75 636 C-373.46428571 639.35238095 -373.46428571 639.35238095 -377.51953125 641.0625 C-380.84537329 642.31951116 -384.17654241 642.64444974 -387.6875 643 C-388.42210449 643.07976074 -389.15670898 643.15952148 -389.91357422 643.24169922 C-391.4722161 643.41078006 -393.03114625 643.57722151 -394.59033203 643.74121094 C-397.01928724 644.00207138 -399.44511269 644.28318535 -401.87109375 644.5703125 C-403.45572026 644.75528461 -405.04035544 644.94018256 -406.625 645.125 C-407.35807373 645.21265625 -408.09114746 645.3003125 -408.84643555 645.390625 C-413.26342385 645.89282012 -417.55432326 646.0816791 -422 646 C-422 643 -422 643 -419.40234375 640.29296875 C-418.25504324 639.24934301 -417.09959527 638.21462596 -415.9375 637.1875 C-415.63904175 636.91764282 -415.63904175 636.91764282 -414.12866211 635.55200195 C-411.15349458 632.87260894 -408.13964325 630.24946542 -405.0625 627.6875 C-402.17433475 625.26883945 -399.85451028 622.55153371 -397.46484375 619.6484375 C-396 618 -396 618 -393 615.5625 C-389.80915182 612.83698385 -387.66000249 610.0109176 -385.296875 606.57421875 C-384.86890625 606.05472656 -384.4409375 605.53523437 -384 605 C-383.34 605 -382.68 605 -382 605 C-381.773125 604.113125 -381.54625 603.22625 -381.3125 602.3125 C-380.04370207 599.11029571 -378.95675587 597.92108007 -376.4921875 595.66796875 C-367.32513945 585.42103284 -361.93177718 570.00111676 -356.9375 557.33984375 C-356.14282451 555.35646617 -355.29571215 553.3942237 -354.4375 551.4375 C-349.46355353 539.54328018 -349.46355353 539.54328018 -350 534 C-358.80287434 529.24168954 -368.38064779 526.4864569 -377.9855957 523.83837891 C-382.27656303 522.62609444 -386.02438827 521.06101118 -390 519 C-391.42291812 518.51717859 -392.86138477 518.07747064 -394.3125 517.6875 C-405.47116375 514.47770365 -416.35246541 510.29967049 -427.16015625 506.078125 C-429.57143294 505.16270221 -431.97902308 504.33838629 -434.4375 503.5625 C-438.38903864 502.29132489 -442.13685277 500.66687869 -445.9375 499 C-450.89306579 496.83260891 -455.75822917 495.09349399 -460.9609375 493.64453125 C-463.58808032 492.81411254 -465.69552418 491.49479513 -468 490 C-471.40359839 488.42426 -474.60867363 487.09783159 -478.25 486.1875 C-482.66600409 484.78909871 -486.33039237 482.66261722 -490.34765625 480.38671875 C-492.58754201 479.21564446 -494.50476134 478.42460844 -496.9375 477.8125 C-500 477 -500 477 -501.8203125 475.60546875 C-504.40072215 473.70484444 -506.95799064 472.67226598 -509.9375 471.5 C-512.88596525 470.33701497 -515.64432528 469.21430975 -518.3605957 467.57763672 C-520.92428312 466.04525784 -523.50076149 464.74561457 -526.203125 463.4765625 C-526.69361328 463.24453125 -526.69361328 463.24453125 -529.17578125 462.0703125 C-531.20945581 461.11420121 -533.24330723 460.15846602 -535.27734375 459.203125 C-540.64075584 456.66514437 -545.88910713 454.02390325 -551.05175781 451.09863281 C-555.59857711 448.53463697 -560.30911281 446.28545052 -565 444 C-566.17175781 443.4225 -567.34351563 442.845 -568.55078125 442.25 C-569.70964844 441.693125 -570.86851562 441.13625 -572.0625 440.5625 C-573.12597656 440.04816406 -574.18945312 439.53382813 -575.28515625 439.00390625 C-578 438 -578 438 -581 439 C-582.0625 441.625 -582.0625 441.625 -583 445 C-583.33773437 446.18078125 -583.67546875 447.3615625 -584.0234375 448.578125 C-584.34570312 449.70734375 -584.66796875 450.8365625 -585 452 C-585.53064333 453.58706171 -586.07068756 455.17104942 -586.625 456.75 C-587.60215272 459.59873624 -588.27739729 462.35089192 -588.8125 465.3125 C-589.85249433 470.3880279 -592.22070235 474.63999456 -594.61328125 479.19921875 C-595.74387721 481.48270411 -596.56256529 483.48583305 -597.1875 485.9375 C-598 489 -598 489 -599.40625 491.33203125 C-601.04587416 494.07679424 -602.16515074 496.76925759 -603.3125 499.75 C-605.26744903 504.557639 -607.52691858 508.67223913 -610.5703125 512.8671875 C-612.31237602 515.46600357 -613.6138266 518.1960695 -615 521 C-620.2786686 530.27729054 -626.33722847 538.68194617 -633 547 C-633.7425 547.93714844 -634.485 548.87429688 -635.25 549.83984375 C-665.49386006 587.48264814 -665.49386006 587.48264814 -678 591 C-678 591.66 -678 592.32 -678 593 C-681.49603424 596.17082175 -684.95537737 598.57322642 -689 601 C-691.0507754 602.40344842 -693.09177351 603.82124625 -695.125 605.25 C-707.43305534 613.81894339 -720.15269332 621.22235865 -733.62890625 627.8203125 C-735.19316641 628.59857703 -736.74351031 629.40555108 -738.27734375 630.2421875 C-744.11972103 633.37237965 -750.02627425 635.4058609 -756.37939453 637.21289062 C-759.27056049 638.05255979 -761.78859407 638.86495474 -764.3359375 640.4921875 C-768.40407393 642.79468114 -772.7706123 643.51745625 -777.3125 644.5 C-787.59621412 646.75296917 -787.59621412 646.75296917 -792.16796875 648.61328125 C-796.179956 650.20381131 -799.68546685 650.49488691 -804 650.6875 C-804.33966797 650.70458008 -804.33966797 650.70458008 -806.05859375 650.79101562 C-807.70520211 650.87218646 -809.35256624 650.93779221 -811 651 C-811 649.68 -811 648.36 -811 647 C-808.3125 644.5625 -808.3125 644.5625 -806.80078125 643.44140625 C-802.19534057 639.75505568 -798.29126297 635.21645293 -794.3125 630.875 C-794.06983398 630.61267578 -794.06983398 630.61267578 -792.84179688 629.28515625 C-790.68491704 626.93490098 -788.77375319 624.66062978 -787 622 C-786.34 622 -785.68 622 -785 622 C-784.74734375 621.42765625 -784.4946875 620.8553125 -784.234375 620.265625 C-782.8468726 617.71894338 -781.22161839 615.87445703 -779.25 613.75 C-774.73689504 608.7773789 -770.72331571 603.58497356 -767 598 C-766.34 598 -765.68 598 -765 598 C-764.79375 597.34 -764.5875 596.68 -764.375 596 C-763.21497183 593.46902945 -762.17324433 591.78981894 -760.5 589.625 C-753.29042607 580.29496315 -746.85189584 570.2280962 -741 560 C-740.77248047 559.60619141 -740.77248047 559.60619141 -739.62109375 557.61328125 C-736.2488816 551.61313266 -733.22439146 545.45413891 -730.25 539.25 C-729.86094482 538.44570557 -729.47188965 537.64141113 -729.07104492 536.81274414 C-726.91791755 532.26808897 -725.30438351 527.87365111 -724 523 C-723.37111923 521.44253747 -722.70877804 519.89776533 -722 518.375 C-721.65195312 517.60929688 -721.30390625 516.84359375 -720.9453125 516.0546875 C-720.63335938 515.37664063 -720.32140625 514.69859375 -720 514 C-718.60978417 510.91063149 -717.75440555 507.9895208 -717.0625 504.6875 C-716.43344822 501.68967513 -715.68753648 499.19846315 -714.5625 496.3125 C-710.68992955 486.31813888 -709.58938241 475.70427253 -708.73413086 465.10449219 C-708.41498287 461.33801841 -707.99285159 457.97404578 -706.984375 454.3125 C-705.32679854 448.14702125 -705.4724547 441.71955156 -705.3125 435.375 C-705.29320435 434.69213928 -705.27390869 434.00927856 -705.25402832 433.3057251 C-704.37729526 401.56446638 -704.37729526 401.56446638 -708.31640625 386.9765625 C-709.06063951 383.73595824 -709.28106305 380.69451579 -709.4375 377.375 C-709.76388381 371.44680429 -710.67192775 365.80082543 -711.875 360 C-712.03669678 359.19868652 -712.19839355 358.39737305 -712.36499023 357.57177734 C-713.36325497 352.95656214 -714.8249165 349.21906608 -717 345 C-717.58984375 342.359375 -717.58984375 342.359375 -717.9375 339.75 C-718.97168107 333.37979224 -721.09636601 327.64863182 -724.078125 321.93359375 C-725 320 -725 320 -725.75 316.5 C-726.89231496 311.62249645 -729.18625345 307.45066993 -731.484375 303.02734375 C-732.85887647 300.28188335 -734.02631536 297.55192782 -735.125 294.6875 C-736.73204776 290.50917583 -738.73233089 286.85503749 -741 283 C-741.14115234 282.62875 -741.14115234 282.62875 -741.85546875 280.75 C-743.31615803 277.24035751 -745.21971943 274.05357457 -747.1875 270.8125 C-747.58678711 270.15048584 -747.98607422 269.48847168 -748.39746094 268.80639648 C-751.24292027 264.13341648 -754.26580949 259.62613475 -757.4609375 255.18359375 C-758.85609183 253.20417428 -760.12777864 251.19946002 -761.375 249.125 C-769.41436255 236.06760396 -779.83922348 224.43302421 -789.83911133 212.85791016 C-792.00355331 210.3496592 -794.12653374 207.83916358 -796.17578125 205.234375 C-798.04468724 202.9452653 -800.11736333 201.23110934 -802.41796875 199.390625 C-804.73634678 197.35274209 -806.64989036 195.02961009 -808.60546875 192.6484375 C-809.99397765 191.00711885 -811.46017734 189.49894241 -813 188 C-812.835 187.67 -812.835 187.67 -812 186 C-809.77027727 186.11465421 -807.54121247 186.24214766 -805.3125 186.375 C-804.07113281 186.44460938 -802.82976562 186.51421875 -801.55078125 186.5859375 C-798.2431118 186.97165033 -796.02297559 187.70098972 -793 189 C-790.86395129 189.52105403 -788.71654799 189.99672949 -786.5625 190.4375 C-785.33273437 190.6953125 -784.10296875 190.953125 -782.8359375 191.21875 C-780.3226991 191.73061118 -777.80710019 192.23104586 -775.2890625 192.71875 C-769.23071068 193.92779201 -763.75409473 195.25169112 -758.19921875 197.97265625 C-755.72223498 199.12975524 -753.21300352 199.99529781 -750.625 200.875 C-745.61029258 202.64986836 -741.11140417 204.98059401 -736.5078125 207.6328125 C-734 209 -734 209 -731.65625 209.91796875 C-728.05658306 211.38430367 -724.75110411 213.26964185 -721.375 215.1875 C-720.66714355 215.5882373 -719.95928711 215.98897461 -719.22998047 216.40185547 C-709.8122251 221.7721344 -700.79101578 227.65744491 -692 234 C-691.47100098 234.3801123 -690.94200195 234.76022461 -690.39697266 235.15185547 C-688.71690697 236.36396874 -687.04493865 237.58648157 -685.375 238.8125 C-684.35148438 239.56144531 -683.32796875 240.31039062 -682.2734375 241.08203125 C-681.52320313 241.71496094 -680.77296875 242.34789062 -680 243 C-680 243.66 -680 244.32 -680 245 C-679.54625 245.1134375 -679.54625 245.1134375 -677.25 245.6875 C-673.47914093 247.21034693 -672.41264425 248.80908341 -670 252 C-669.175 252.495 -668.35 252.99 -667.5 253.5 C-664.53720851 255.27767489 -663.15063225 257.29634802 -661 260 C-658.90775688 261.86649049 -656.77420876 263.66757637 -654.609375 265.44921875 C-654.07828125 265.96097656 -653.5471875 266.47273438 -653 267 C-653 267.66 -653 268.32 -653 269 C-652.40574219 269.25910156 -651.81148437 269.51820313 -651.19921875 269.78515625 C-648.8247303 271.09681861 -647.55291433 272.3704894 -645.8125 274.4375 C-645.20921875 275.15164063 -644.6059375 275.86578125 -643.984375 276.6015625 C-643.32953125 277.39304687 -642.6746875 278.18453125 -642 279 C-641.28328125 279.85335938 -640.5665625 280.70671875 -639.828125 281.5859375 C-626.05474359 298.16148961 -612.34911759 316.78283609 -603.99609375 336.79296875 C-602.79386691 339.45672625 -601.37628797 341.95661687 -599.9375 344.5 C-597.72663902 348.48507691 -596.08651142 352.27924901 -594.77734375 356.6328125 C-593.85399176 359.44462811 -592.68649358 362.10152061 -591.5 364.8125 C-589.35742337 369.85461147 -587.92044136 374.82184291 -586.69140625 380.15234375 C-585.70903036 384.19840039 -584.37486034 388.07182761 -583 392 C-578.87573781 392.3194851 -576.85267916 391.63465208 -573.5 389.25 C-572.71625 388.69957031 -571.9325 388.14914062 -571.125 387.58203125 C-569.5506028 386.40991569 -568.014051 385.18659208 -566.5 383.9375 C-563.53653657 381.64081584 -560.40579571 379.9740063 -557.0859375 378.24609375 C-555.0339431 377.02027687 -553.65561764 375.70225476 -552 374 C-551.154375 373.5875 -550.30875 373.175 -549.4375 372.75 C-545.57055648 370.78137421 -542.2240654 368.39898014 -538.6953125 365.88671875 C-532.1352617 361.29468319 -525.2734752 357.16416799 -518.4375 353 C-514.45289669 350.56496465 -510.59707717 348.04712394 -506.8125 345.3125 C-502.82675958 342.46276051 -498.75605247 340.22102298 -494.32421875 338.140625 C-489.96358891 336.00061842 -485.94377446 333.329167 -481.875 330.6875 C-477.26900234 327.74237817 -472.56765194 325.1027477 -467.74609375 322.53125 C-464.93403004 320.96321447 -462.25640431 319.26243955 -459.5625 317.5 C-455.920748 315.14236366 -452.27898013 313.07824072 -448.375 311.1875 C-443.25025329 308.70499283 -438.38211921 305.92020157 -433.5 303 C-427.67384292 299.51720261 -421.80431405 296.32018477 -415.69140625 293.359375 C-413.03994166 292.02017373 -410.52967442 290.55548919 -408 289 C-402.50540172 285.63346836 -396.78411565 282.83081425 -391 280 C-388.41418723 278.71327977 -385.83221561 277.41892068 -383.25 276.125 C-381.8854821 275.44257748 -380.52089811 274.7602871 -379.15625 274.078125 C-378.47175781 273.73587891 -377.78726562 273.39363281 -377.08203125 273.04101562 C-363.0546875 266.02734375 -349.02734375 259.01367188 -335 252 C-334.79913557 248.28400809 -334.8480563 247.22791555 -337 244 C-337.12375 243.505 -337.12375 243.505 -337.75 241 C-339.21252265 235.5612439 -342.24122697 230.86571185 -345 226 C-345.98193178 224.18899653 -346.96112933 222.3765077 -347.9375 220.5625 C-348.95601789 218.70706042 -349.97690094 216.85291744 -351 215 C-351.52207031 214.04222656 -352.04414062 213.08445312 -352.58203125 212.09765625 C-357.04905636 204.13651783 -362.29397991 197.08929769 -368 190 C-368.81339844 188.98035156 -369.62679688 187.96070313 -370.46484375 186.91015625 C-379.74940583 175.40100692 -390.39689144 165.22509693 -402.52734375 156.75390625 C-405.10184592 154.92775858 -407.53893154 152.97568054 -410 151 C-411.8669879 149.61414063 -413.74211563 148.23918344 -415.625 146.875 C-416.56601562 146.19179687 -417.50703125 145.50859375 -418.4765625 144.8046875 C-420.29504141 143.50416543 -422.13980959 142.24012694 -424 141 C-423.67 140.01 -423.34 139.02 -423 138 C-340.61022312 135.63451227 -340.61022312 135.63451227 -305 150 C-304.05125 150.34675781 -303.1025 150.69351563 -302.125 151.05078125 C-287.63863166 156.39611187 -273.95904434 163.62012327 -261 172 C-260.10539063 172.57492187 -259.21078125 173.14984375 -258.2890625 173.7421875 C-249.38556493 179.56100875 -240.74932098 185.79236812 -232.7578125 192.82421875 C-232.49452148 193.05343018 -232.49452148 193.05343018 -231.16210938 194.21337891 C-229.71368915 195.48465752 -228.28202797 196.77495784 -226.8515625 198.06640625 C-223.43553775 200.3827518 -221.1062655 200.88672371 -217 201 C-214.8125 200.21484375 -214.8125 200.21484375 -213 198.9375 C-212.32839844 198.46441406 -211.65679688 197.99132812 -210.96484375 197.50390625 C-210.31644531 197.00761719 -209.66804687 196.51132812 -209 196 C-208.42378906 195.57589844 -207.84757813 195.15179688 -207.25390625 194.71484375 C-202.52640168 190.96996137 -198.95615917 186.39203332 -195.21484375 181.69140625 C-192.78092523 178.73378745 -190.19023294 176.06641412 -187.41015625 173.4375 C-186 172 -186 172 -184 169 C-183.34 169 -182.68 169 -182 169 C-181.79375 168.443125 -181.5875 167.88625 -181.375 167.3125 C-179.8467029 164.74218215 -178.01037296 163.22768858 -175.6328125 161.44140625 C-174 160 -174 160 -172.14453125 157.625 C-169.84107854 154.80547318 -167.40610608 152.70528571 -164.5625 150.4375 C-163.63566406 149.69371094 -162.70882812 148.94992188 -161.75390625 148.18359375 C-160.84511719 147.46300781 -159.93632813 146.74242187 -159 146 C-158.23558594 145.37351563 -157.47117187 144.74703125 -156.68359375 144.1015625 C-153.04441982 141.25167083 -149.27932185 138.59738542 -145.5 135.9375 C-144.75363281 135.40833984 -144.00726562 134.87917969 -143.23828125 134.33398438 C-139.56461466 131.74291157 -135.89028784 129.25954551 -132 127 C-130.76957693 126.21028747 -129.54034974 125.41870764 -128.3125 124.625 C-124.41588107 122.17485325 -120.37366143 120.13897261 -116.2421875 118.1171875 C-113.73972497 116.87031593 -111.38069038 115.46504023 -109 114 C-106.73268576 112.75133419 -104.46045871 111.51241442 -102.18359375 110.28125 C-100 109 -100 109 -97.9296875 107.4296875 C-95.71944296 105.7921379 -93.39493535 104.91220666 -90.859375 103.8828125 C-88.22246316 102.63083335 -86.01565835 100.93361876 -83.6875 99.1875 C-82 98 -82 98 -78.9375 96.5 C-75.51028084 94.74993064 -72.9245938 92.489016 -70 90 C-69.21496094 89.53207031 -68.42992187 89.06414062 -67.62109375 88.58203125 C-48.9147364 77.29130886 -29.52492285 57.55115744 -20 38 C-19.34 37.67 -18.68 37.34 -18 37 C-16.96188023 35.11461256 -15.99271099 33.19089824 -15.0625 31.25 C-13.19585694 27.37349318 -11.21807508 23.68358897 -9 20 C-7.78995989 17.69580336 -6.60208586 15.38916722 -5.4375 13.0625 C-5.13392578 12.46759766 -4.83035156 11.87269531 -4.51757812 11.25976562 C-2.67347538 7.5836131 -1.20616045 3.93052286 0 0 Z M12 46 C9.32331971 48.88257877 7.32170973 51.35658055 5.5625 54.875 C3.50757492 58.98485017 0.81834225 62.38691195 -2 66 C-2.50273438 66.66644531 -3.00546875 67.33289063 -3.5234375 68.01953125 C-7.23420695 72.89783548 -11.14599465 77.59019936 -15.125 82.25 C-15.62789551 82.84055176 -16.13079102 83.43110352 -16.64892578 84.03955078 C-25.68981409 94.55601678 -36.24203994 103.64890058 -48 111 C-49.6174959 112.05348736 -51.23496685 113.1070132 -52.85205078 114.16113281 C-60.78117789 119.31037041 -68.87092328 124.1748746 -77 129 C-77.83273437 129.50273437 -78.66546875 130.00546875 -79.5234375 130.5234375 C-82.51390409 132.30639707 -85.53620826 134.02855987 -88.5625 135.75 C-91.04235172 137.16546887 -93.5212415 138.58261773 -96 140 C-97.07765625 140.61617188 -98.1553125 141.23234375 -99.265625 141.8671875 C-106.29622126 145.92330073 -113.30393022 150.00794351 -119.625 155.125 C-122 157 -122 157 -125.125 158.6875 C-131.50207342 162.21315073 -139.36973718 167.55756176 -143 174 C-142.6875 176.25 -142.6875 176.25 -142 178 C-137.29090109 176.99642154 -132.63640729 175.92433007 -128 174.625 C-121.11774536 172.71752274 -114.16430841 171.12736377 -107.20849609 169.51611328 C-105.08062669 169.01884201 -102.95596786 168.50987648 -100.83203125 167.99609375 C-92.56430229 166.00316369 -84.27679583 164.2035249 -75.92993164 162.57250977 C-71.33219728 161.67290551 -66.74592558 160.73801967 -62.16796875 159.7421875 C-51.30859124 157.38992484 -40.51409747 155.34196542 -29.48095703 153.98803711 C-25.26882671 153.46932782 -21.13479506 152.85502126 -16.98046875 151.98046875 C-12.06517618 150.96124581 -7.18552944 150.42269944 -2.1875 150 C-0.55596025 149.85449522 1.07554832 149.70864056 2.70703125 149.5625 C3.64635498 149.4812085 4.58567871 149.39991699 5.5534668 149.31616211 C8.21657821 149.07186592 10.87480445 148.80769639 13.53442383 148.52954102 C27.03429469 147.14006006 40.50324113 146.43456092 54.0625 145.9375 C88.35952566 144.64047434 88.35952566 144.64047434 91 142 C90.40100727 137.87038054 88.29657884 134.25089841 86.4375 130.5625 C86.08107422 129.85383789 85.72464844 129.14517578 85.35742188 128.41503906 C81.93045545 121.70264174 78.10027146 115.32659073 74 109 C73.34 107.98164063 72.68 106.96328125 72 105.9140625 C70.03028581 102.92102024 68.02252926 99.95754775 66 97 C65.4328125 96.14277344 64.865625 95.28554687 64.28125 94.40234375 C51.80845372 76.26755442 33.27171368 56.80063074 14 46 C13.34 46 12.68 46 12 46 Z M-339 174 C-338.4654048 178.37110191 -336.9330904 180.80031234 -334.25 184.25 C-331.14380097 188.36751965 -328.47514698 192.4505284 -326.10546875 197.02734375 C-325 199 -325 199 -323.48828125 200.94140625 C-321.84880009 203.20914003 -321.01415682 205.39898603 -320 208 C-319.05161842 209.64315694 -318.0712455 211.2681942 -317.0625 212.875 C-314.65542996 216.82491493 -312.74614264 220.70739935 -311 225 C-309.02234468 229.3436874 -307.01117503 233.67174306 -305 238 C-300.34309893 238.31751598 -298.59223547 237.84161911 -295 235 C-291.84880671 233.85664668 -288.69570167 232.85987138 -285.48828125 231.89453125 C-282.71307898 231.02485709 -280.3325642 230.24974666 -277.9921875 228.4921875 C-274.6750956 226.00762062 -270.60918951 225.18626476 -266.6640625 224.0703125 C-261.78383168 222.57475789 -258.74977317 220.47115225 -255 217 C-261.34443789 202.4803909 -283.75856209 192.51274586 -297.3125 185.6875 C-297.95791748 185.36201172 -298.60333496 185.03652344 -299.26831055 184.70117188 C-303.74754705 182.495092 -308.29834374 180.67414061 -313 179 C-314.23621094 178.55398438 -315.47242188 178.10796875 -316.74609375 177.6484375 C-334.23231058 171.61615529 -334.23231058 171.61615529 -339 174 Z M0.28564453 179.57128906 C-4.02130883 180.37913035 -8.3848471 180.61612957 -12.75 180.9375 C-20.2187479 181.54918901 -27.34777508 182.44237167 -34.63671875 184.21875 C-41.14348323 185.73019355 -47.7452805 186.781922 -54.32421875 187.9296875 C-64.07349783 189.63937881 -73.67243519 191.54880093 -83.24609375 194.0625 C-87.14661107 195.03661463 -91.05087915 195.81992187 -95 196.5625 C-100.32391931 197.58933559 -104.9765524 199.00794319 -110 201 C-111.36859483 201.33945462 -112.74449091 201.6503138 -114.125 201.9375 C-124.52388639 204.11277725 -134.64016212 207.48889788 -144.75048828 210.71557617 C-150.06346954 212.40597359 -155.39438276 214.01298326 -160.75 215.5625 C-171.48683971 218.6807325 -182.05740078 222.22916896 -192.54296875 226.11328125 C-194.74436637 226.9077443 -196.95311309 227.61819898 -199.1875 228.3125 C-204.32479652 229.98790661 -209.19739514 232.2507158 -214.12670898 234.44799805 C-218.29582605 236.29358603 -222.43782666 237.91016779 -226.796875 239.2578125 C-230.64750607 240.55501091 -234.34871563 242.22299804 -238.0859375 243.8125 C-240.58259752 244.82990569 -243.05302929 245.70023526 -245.625 246.5 C-248.96914651 247.55827421 -251.95319189 248.93922347 -255.0625 250.5625 C-258.0332998 252.1073159 -260.65582648 253.2811653 -263.9375 253.9375 C-268.57941325 254.90534831 -272.32841084 257.29673823 -276.4140625 259.625 C-279.51614827 261.27444742 -282.62168473 262.05170098 -286 263 C-289.08693509 264.45242625 -292.11701853 265.99753181 -295.15234375 267.5546875 C-298.37822498 269.19196604 -301.66295039 270.60450653 -305 272 C-307.78829155 273.26262259 -310.57069406 274.53752549 -313.3515625 275.81640625 C-315.0414608 276.57162628 -316.7466142 277.29415655 -318.46875 277.97265625 C-324.66088007 280.48582015 -330.74200685 283.56526736 -336.4375 287.0625 C-340.68550943 289.58606996 -345.37695325 291.09279758 -350.01171875 292.75390625 C-353 294 -353 294 -354.86547852 295.42016602 C-357.1978207 297.14641401 -359.50914853 298.30375244 -362.140625 299.5234375 C-362.63498047 299.75546875 -362.63498047 299.75546875 -365.13671875 300.9296875 C-367.19640124 301.88587636 -369.25629387 302.8416127 -371.31640625 303.796875 C-376.5322887 306.24583667 -381.51788162 308.76607224 -386.32128906 311.95751953 C-389.04681242 313.65007112 -392.05538002 314.73802001 -395 316 C-396.34637267 316.8120978 -397.67937367 317.64667222 -399 318.5 C-401.92446016 320.38440358 -404.80558251 321.82723251 -408.0390625 323.13671875 C-415.68451027 326.50254336 -422.84820098 331.06121831 -430.0390625 335.28515625 C-432.79561616 336.88162994 -435.57345218 338.42170653 -438.375 339.9375 C-448.31871408 345.32367846 -458.06404144 350.98102935 -467.671875 356.9453125 C-471.15939388 359.09840514 -474.6691471 361.21039196 -478.1875 363.3125 C-509.48027915 382.03576038 -509.48027915 382.03576038 -522.60546875 391.31640625 C-528.15016161 395.21487709 -533.82349987 398.89533876 -539.5625 402.5 C-544.22379151 405.44777449 -548.65712886 408.60285438 -553 412 C-552.78515625 414.375 -552.78515625 414.375 -552 417 C-549.99609375 418.1875 -549.99609375 418.1875 -547.4375 419 C-543.94031791 420.22873965 -540.96154701 421.50684742 -537.875 423.5625 C-534.68051938 425.67290989 -531.60583103 426.94799558 -528 428.1875 C-525.09152457 429.36906814 -522.61652077 431.09540825 -520 432.8125 C-518.02541807 433.98490802 -516.16721786 434.75501886 -514 435.5 C-511.03879781 436.51791325 -508.61836839 437.78169575 -506 439.5 C-502.77868956 441.60986415 -499.69309069 442.93838755 -496.06640625 444.1875 C-493.73900729 445.10262095 -491.66610394 446.25161077 -489.5 447.5 C-486.1007523 449.45238842 -482.78879999 450.8959666 -479.09765625 452.1875 C-476.640446 453.13926859 -474.34433819 454.29740819 -472 455.5 C-468.38603314 457.34836473 -464.80449872 458.89784845 -460.984375 460.2578125 C-458.8369092 461.06099853 -456.77230483 461.98381269 -454.6875 462.9375 C-450.57944408 464.78891976 -446.41049729 466.34937473 -442.16796875 467.86328125 C-438.35052589 469.23304188 -434.54910901 470.64282141 -430.75 472.0625 C-430.08863037 472.30790527 -429.42726074 472.55331055 -428.74584961 472.80615234 C-425.55612136 473.99925375 -422.4019812 475.23853079 -419.27734375 476.59375 C-416.79425199 477.65920058 -414.37916864 478.61268233 -411.8125 479.4375 C-411.05453125 479.68371094 -410.2965625 479.92992187 -409.515625 480.18359375 C-408.68546875 480.45300781 -407.8553125 480.72242188 -407 481 C-405.02062049 481.66603446 -403.04146459 482.33273373 -401.0625 483 C-396.42584478 484.55345738 -391.76830069 485.97436598 -387.05859375 487.2890625 C-385 488 -385 488 -382 490 C-380.55586631 490.4823072 -379.09462596 490.91457802 -377.625 491.3125 C-373.51596472 492.48906969 -369.59292867 493.9118747 -365.625 495.5 C-360.4229949 497.54168003 -355.27941811 499.04722181 -349.84375 500.3203125 C-341.52690897 502.3081289 -333.42563035 505.13019514 -325.34765625 507.9140625 C-320.99162331 509.32710469 -316.59417061 510.568018 -312.1875 511.8125 C-305.30545379 513.76794871 -298.42739009 515.7350624 -291.5625 517.75 C-290.88405029 517.94827393 -290.20560059 518.14654785 -289.5065918 518.35083008 C-286.61028153 519.20328631 -283.74246507 520.08961957 -280.890625 521.08203125 C-277.97429151 522.00816418 -275.21428719 522.51204799 -272.1875 522.9375 C-267.69827234 523.64342278 -263.65876679 524.69098773 -259.390625 526.2109375 C-250.81681329 529.04085574 -241.93484703 530.40731108 -232.99609375 531.47265625 C-230 532 -230 532 -228.09570312 532.96826172 C-225.86482294 534.06654919 -223.90960097 534.56183293 -221.47265625 535.03515625 C-220.60415039 535.204104 -219.73564453 535.37305176 -218.84082031 535.54711914 C-217.92397461 535.71719482 -217.00712891 535.88727051 -216.0625 536.0625 C-215.12116211 536.24095459 -214.17982422 536.41940918 -213.20996094 536.60327148 C-207.13405541 537.71684011 -201.17042744 538.48037109 -194.984375 538.62890625 C-192.34378857 538.95725142 -190.41749451 539.50527007 -187.94140625 540.3984375 C-182.14565108 542.42471849 -176.25064837 543.21856423 -170.1875 544.0625 C-169.00712158 544.23313965 -167.82674316 544.4037793 -166.6105957 544.57958984 C-158.5168492 545.72340824 -150.41749269 546.67106476 -142.26831055 547.31665039 C-141.52363525 547.37973389 -140.77895996 547.44281738 -140.01171875 547.5078125 C-139.37709717 547.55566895 -138.74247559 547.60352539 -138.08862305 547.65283203 C-136 548 -136 548 -133.234375 548.96826172 C-129.58414511 550.1326542 -126.03014707 550.61834465 -122.23828125 551 C-121.47631439 551.08066711 -120.71434753 551.16133423 -119.92929077 551.2444458 C-117.39132136 551.5071837 -114.85229802 551.75559328 -112.3125 552 C-111.42430573 552.08648804 -110.53611145 552.17297607 -109.6210022 552.26208496 C-51.83796807 557.79425167 9.44885975 560.17985749 67 551 C68.25554688 550.81308594 69.51109375 550.62617187 70.8046875 550.43359375 C74.74366537 549.82204095 78.47342472 549.15990898 82.29296875 548 C86.32848192 546.91138949 90.16501828 546.44408298 94.3125 546.0625 C100.78035491 545.39873285 107.20535184 544.59618928 113.625 543.5625 C114.34598877 543.45236572 115.06697754 543.34223145 115.80981445 543.22875977 C119.41572385 542.62923915 122.67935189 541.81249625 126.08203125 540.46484375 C129.7290792 539.02058775 133.14609938 538.41636153 137.0625 538 C142.41841844 537.35258129 147.70386374 536.59173026 153 535.5625 C154.175625 535.33691406 155.35125 535.11132812 156.5625 534.87890625 C160.24845004 533.93647584 163.51216699 532.50629278 167 531 C169.6328125 530.41015625 169.6328125 530.41015625 172.125 530.0625 C179.51679431 528.84755038 186.72413658 526.7253484 193.671875 523.921875 C196 523 196 523 199.375 522.25 C206.15418088 520.63590932 212.58266912 517.67445497 219 515 C219.65669678 514.74742432 220.31339355 514.49484863 220.98999023 514.23461914 C222.69036718 513.56196397 224.34973088 512.78762844 226 512 C226.9375 509.3125 226.9375 509.3125 227 507 C223.3369246 504.59283616 219.82586779 502.33352353 215.75 500.6875 C186.86821049 488.9378629 162.43288162 457.81785436 148 431 C147.30926287 429.34316433 146.63609115 427.67857388 146 426 C145.34 426 144.68 426 144 426 C143.7525 424.88625 143.505 423.7725 143.25 422.625 C142.20020613 418.40348846 140.64938508 414.49614547 139.00390625 410.4765625 C136.07186373 403.24343038 134.18866231 395.90397892 132.53320312 388.29077148 C131.75464197 384.80541811 130.90254241 381.77293387 129.484375 378.46875 C126.97446817 372.00668824 126.81304911 364.91332117 126.25 358.0625 C126.18551666 357.31111755 126.12103333 356.55973511 126.05459595 355.7855835 C124.90090142 342.09768851 124.89296784 328.70159724 126 315 C126.06880371 314.04802734 126.13760742 313.09605469 126.20849609 312.11523438 C126.41056271 309.36637472 126.63568751 306.62084954 126.875 303.875 C126.94098389 303.07529785 127.00696777 302.2755957 127.07495117 301.45166016 C127.50381747 297.21039582 128.34604206 293.9311153 130.18408203 290.03662109 C132.4775148 284.31196037 133.421545 277.99009864 134.75 271.984375 C134.9975 270.90414062 135.245 269.82390625 135.5 268.7109375 C135.60828125 268.22262451 135.60828125 268.22262451 136.15625 265.75146484 C137.05796939 262.81096209 138.34669556 260.5813076 140 258 C140.782707 256.2013822 141.5311123 254.38756349 142.25 252.5625 C146.31183655 242.64036313 150.96215842 232.88347085 157 224 C157.49886719 223.25878906 157.99773438 222.51757812 158.51171875 221.75390625 C170.67710583 204.03044023 170.67710583 204.03044023 177.625 197.3125 C178.40875 196.549375 179.1925 195.78625 180 195 C180 194.34 180 193.68 180 193 C180.5775 192.773125 181.155 192.54625 181.75 192.3125 C184.652294 190.61949517 186.18808695 188.81853141 188 186 C187.60546875 183.8359375 187.60546875 183.8359375 187 182 C177.63423785 180.26130653 168.28782794 178.6439324 158.81835938 177.56713867 C155.38976386 177.17403164 151.97165836 176.72741943 148.55224609 176.26147461 C129.8291069 173.82129218 111.32763228 173.48203958 92.47795868 173.55397797 C89.96912238 173.56260619 87.46032672 173.56567111 84.95147705 173.56768799 C27.71396689 173.64430283 27.71396689 173.64430283 0.28564453 179.57128906 Z M228.4375 192.75 C227.67050781 193.30558594 226.90351562 193.86117187 226.11328125 194.43359375 C225.41589844 194.95050781 224.71851563 195.46742188 224 196 C223.05125 196.598125 222.1025 197.19625 221.125 197.8125 C207.21678957 207.5482473 195.75890766 219.16077834 186 233 C185.36191406 233.86625 184.72382812 234.7325 184.06640625 235.625 C180.52875563 240.49402451 177.63705017 245.39833921 175.05078125 250.83203125 C174 253 174 253 172.4375 255.5 C170.61187003 258.67500864 169.36057331 261.97797871 168.04296875 265.390625 C167.07442646 267.81379448 165.99794644 270.14556954 164.875 272.5 C163.09634304 276.43796035 162.23626049 280.23404106 161.4921875 284.4765625 C161.00119093 286.99389411 160.33032803 289.36653235 159.5625 291.8125 C159.03843954 293.54069135 158.5180295 295.26999128 158 297 C157.73888428 297.83370117 157.47776855 298.66740234 157.20874023 299.52636719 C154.42712201 309.69263423 154.47628216 319.80361203 154.49902344 330.2800293 C154.49998857 333.40053796 154.45840732 336.51852079 154.4140625 339.63867188 C154.32375777 355.08886492 155.84045182 370.64686076 162 385 C162.27998991 386.32735957 162.53037415 387.66132817 162.75 389 C164.09426508 395.43096414 167.17223469 401.11519111 170 407 C170.53116227 408.24564602 171.05454592 409.49471118 171.5625 410.75 C183.02347244 436.66176378 203.51935871 459.78285759 228 474 C228.65613281 474.39703125 229.31226563 474.7940625 229.98828125 475.203125 C243.81513118 483.41952363 259.16619822 486.79058399 275 488 C275.96292969 488.11859375 276.92585938 488.2371875 277.91796875 488.359375 C287.02876214 489.07610912 294.93256046 484.71852848 303 481 C304.36954879 480.38357469 305.73933356 479.76767335 307.109375 479.15234375 C313.91437226 476.06407116 320.52571594 472.73438328 327 469 C328.22572304 468.31100447 329.45237475 467.62365977 330.6796875 466.9375 C360.02004549 450.53168428 360.02004549 450.53168428 368 444.484375 C370.24711843 442.81659179 372.60043979 441.43973613 375 440 C377.18560336 438.52085429 379.34984809 437.02876253 381.5 435.5 C382.10513428 435.07001709 382.71026855 434.64003418 383.33374023 434.19702148 C388.32198256 430.59810661 393.03035724 426.72869449 397.6484375 422.66796875 C400.62237888 420.07057292 403.61771126 418.01625936 407 416 C408.57411571 414.66227027 410.11464788 413.28432522 411.625 411.875 C415.21960765 408.57503232 418.88326443 405.43094715 422.6875 402.375 C426.46392007 399.3199186 429.9532292 396.17135687 433.32421875 392.6796875 C435.14344456 390.85622107 437.04767911 389.17981721 439 387.5 C441.71633545 385.1345024 444.4278962 382.76901925 447.0625 380.3125 C447.65160156 379.77238281 448.24070312 379.23226562 448.84765625 378.67578125 C450 377 450 377 449.8203125 374.9987793 C449 373 449 373 447.26538086 372.00585938 C441.72621969 370.36713296 436.28747174 369.25259453 430.5625 368.5 C428.81101134 368.25392853 427.05971265 368.00650163 425.30859375 367.7578125 C424.42929199 367.63438477 423.54999023 367.51095703 422.64404297 367.38378906 C418.46051658 366.77654036 414.29297245 366.08015546 410.125 365.375 C409.39482666 365.25189453 408.66465332 365.12878906 407.91235352 365.00195312 C405.94141127 364.66890092 403.97069795 364.33449474 402 364 C400.00012051 363.66594441 398.0001692 363.33231651 396 363 C397.50253927 357.56774262 401.24372944 354.23886769 405.0625 350.3125 C406.4317082 348.87959258 407.80020046 347.44600069 409.16796875 346.01171875 C409.49885498 345.6664917 409.49885498 345.6664917 411.17333984 343.91943359 C414.8748402 340.02993937 418.42821481 336.00803376 422 332 C423.54110287 330.29115804 425.08277686 328.58283099 426.625 326.875 C428.08365983 325.25029307 429.54200616 323.62530461 431 322 C431.67675781 321.25234375 432.35351562 320.5046875 433.05078125 319.734375 C433.67339844 319.03828125 434.29601563 318.3421875 434.9375 317.625 C435.21013672 317.32207031 435.21013672 317.32207031 436.58984375 315.7890625 C438 314 438 314 439.00390625 311.8359375 C440 310 440 310 443 309 C444.85092909 307.16251591 446.47195607 305.18500979 448.1484375 303.1875 C449.32321836 301.79957325 450.53378644 300.44057316 451.7890625 299.125 C454.49069125 296.25692019 455.87664913 294.71269392 456.5625 290.75 C455.80369578 287.04029048 454.12762543 285.81752844 451.125 283.640625 C450.42375 283.18171875 449.7225 282.7228125 449 282.25 C448.21109375 281.73308594 447.4221875 281.21617187 446.609375 280.68359375 C434.77589629 273.04851991 434.77589629 273.04851991 430.47265625 270.5078125 C427.94875777 268.96875276 425.57989907 267.29785894 423.1875 265.5625 C419.50375041 262.95705452 415.8650095 260.80680726 411.7890625 258.890625 C410 258 410 258 407.125 256.0625 C403.66619895 253.77969131 400.10524959 252.02196437 396.3671875 250.24609375 C394.03601624 249.01895904 392.09574973 247.58585598 390 246 C388.33480238 245.28167946 386.66809718 244.56624939 384.98828125 243.8828125 C382.73895927 242.88409586 380.63881139 241.71697275 378.5 240.5 C375.84646072 238.99393717 373.31514897 237.70649242 370.5 236.5 C367.66226258 235.28382682 365.1593375 233.97829858 362.5 232.4375 C359.7806766 230.89014089 357.67240814 229.90900226 354.625 229.0625 C351.20350681 228.05964855 348.70849577 226.80981427 345.625 225.0625 C341.57942195 222.78376624 337.76554795 221.10614438 333.3359375 219.76171875 C330.7087068 218.90501309 328.22358891 217.84755108 325.6875 216.75 C316.9565405 213.05270593 307.97033472 210.05663841 299 207 C298.63608154 206.87592773 298.63608154 206.87592773 296.79443359 206.24804688 C283.327182 201.67294082 269.72508657 197.71786938 256 194 C255.25218262 193.79665039 254.50436523 193.59330078 253.73388672 193.38378906 C251.59609715 192.80759351 249.45520383 192.24511014 247.3125 191.6875 C246.07113281 191.36136719 244.82976562 191.03523437 243.55078125 190.69921875 C237.67535447 189.54223152 233.37366917 189.07741741 228.4375 192.75 Z M-717 255 C-718.22417403 258.50047601 -718.07862909 259.82122003 -716.55859375 263.27734375 C-715.86365277 264.50432268 -715.15583392 265.72406823 -714.4375 266.9375 C-711.01059656 273.02096412 -708.10560461 279.15491915 -705.4296875 285.61328125 C-704.0434172 288.89715105 -702.54095369 292.09885306 -701 295.3125 C-697.96407187 301.80778834 -695.60833958 308.47284332 -693.296875 315.25 C-692.56965557 317.35280318 -691.81253644 319.44767417 -690.953125 321.5 C-689.92040519 324.20877328 -689.23800061 326.94412879 -688.5625 329.76025391 C-687.95792292 332.1675413 -687.2709977 334.53924306 -686.5625 336.91796875 C-683.98947183 345.57625745 -681.48857703 354.02485075 -680.421875 363.015625 C-680.07550349 365.46588275 -679.61100962 367.77847082 -679.05078125 370.18359375 C-677.87118771 375.35632187 -677.13372441 380.55582155 -676.4375 385.8125 C-676.31181641 386.72064453 -676.18613281 387.62878906 -676.05664062 388.56445312 C-673.17497146 409.9431191 -672.76177535 431.64384476 -676 453 C-676.1448584 453.96292969 -676.2897168 454.92585937 -676.43896484 455.91796875 C-677.41460271 462.32276777 -678.44939457 468.71631577 -679.51953125 475.10595703 C-679.94374338 477.66114532 -680.35062858 480.21818487 -680.75 482.77734375 C-682.35373107 492.79386745 -684.91072686 502.34353008 -688 512 C-688.33 513.04671875 -688.66 514.0934375 -689 515.171875 C-689.95951976 518.13039425 -690.96640935 521.06653589 -692 524 C-692.21237305 524.60666504 -692.42474609 525.21333008 -692.64355469 525.83837891 C-695.69179577 534.47792821 -699.14476356 542.69330586 -703.38671875 550.81640625 C-704.47845893 552.97080878 -705.49557106 555.16439054 -706.44140625 557.38671875 C-707.57989039 560.02606169 -708.75667071 562.53433297 -710.078125 565.078125 C-710.25601563 565.42101562 -710.25601563 565.42101562 -711.15625 567.15625 C-711.89518522 568.57078314 -712.6401421 569.98218449 -713.390625 571.390625 C-714.33502192 573.22386608 -715.17561712 575.10974835 -716 577 C-715.835 577.495 -715.835 577.495 -715 580 C-709.68317522 578.57891319 -705.99054573 576.15912912 -701.6875 572.875 C-701.34428711 572.61541504 -701.34428711 572.61541504 -699.60742188 571.30175781 C-691.19900942 564.79950583 -683.57075094 557.44469626 -676 550 C-675.2977832 549.31317139 -674.59556641 548.62634277 -673.87207031 547.91870117 C-670.272311 544.36608753 -666.85734082 540.81418051 -663.75 536.8125 C-663.12609375 536.01457031 -662.5021875 535.21664063 -661.859375 534.39453125 C-661.24578125 533.60433594 -660.6321875 532.81414062 -660 532 C-658.66824405 530.33207265 -657.3349319 528.66538656 -656 527 C-652.3882545 522.46395834 -648.90995318 518.02628276 -646 513 C-645.6184375 512.484375 -645.6184375 512.484375 -643.6875 509.875 C-640.8118318 505.92749184 -638.59126358 501.67721925 -636.33203125 497.35546875 C-635 495 -635 495 -633 493 C-632.30901849 491.44529161 -631.62644082 489.8864421 -630.98046875 488.3125 C-629.74661502 485.40237486 -628.40268782 482.55016818 -627.0625 479.6875 C-624.87873214 474.97942623 -622.82966229 470.2538304 -620.95703125 465.4140625 C-620.187682 463.47341826 -619.35894706 461.55636897 -618.51171875 459.6484375 C-614.48357558 449.92676897 -612.55964278 439.35497964 -610.61328125 429.046875 C-610 426 -610 426 -609 423 C-608.30824128 415.74983653 -609.67103023 409.81002553 -612 403 C-612.69456863 400.7938797 -613.38177865 398.58543226 -614.0625 396.375 C-614.40667969 395.26640625 -614.75085938 394.1578125 -615.10546875 393.015625 C-615.77985841 390.74213671 -616.35267279 388.43816335 -616.875 386.125 C-619.65034204 374.39855481 -625.50970986 362.78409105 -630.875 352.0625 C-631.22578613 351.35955811 -631.57657227 350.65661621 -631.93798828 349.93237305 C-634.37626025 345.10123141 -637.07739762 340.55582136 -640 336 C-640.309375 335.175 -640.61875 334.35 -640.9375 333.5 C-642.31129165 330.26754905 -644.34256554 327.81084778 -646.48828125 325.046875 C-647.84962942 323.20360254 -648.9724758 321.38598342 -650.0625 319.375 C-651.70519778 316.51352645 -653.43167103 314.13781863 -655.58984375 311.65625 C-657.82167674 309.03492815 -659.87771414 306.27906563 -661.9609375 303.5390625 C-667.54532644 296.58532148 -673.63750316 290.18031329 -679.9375 283.875 C-680.31745117 283.48892578 -680.31745117 283.48892578 -682.24023438 281.53515625 C-686.36569761 277.39912393 -690.5349882 273.67262904 -695.27416992 270.25585938 C-697.36704799 268.73290495 -699.27856286 267.058628 -701.1875 265.3125 C-703.98003151 262.82112385 -706.74305551 260.86111114 -710 259 C-710.515625 258.46375 -711.03125 257.9275 -711.5625 257.375 C-713.29779613 255.71515152 -714.66471604 255.40263517 -717 255 Z M-319.25 543.375 C-321.28448466 546.42672699 -321.65876456 548.8087393 -322.3046875 552.3671875 C-323.42949857 556.62630358 -325.58287658 560.32995271 -327.62109375 564.21484375 C-329.19558061 567.39503958 -330.03547455 570.59201007 -331 574 C-332.16335079 576.26370425 -333.42267905 578.45790778 -334.69140625 580.6640625 C-340.7194177 591.4245128 -340.7194177 591.4245128 -340 597 C-334.6684614 596.66677884 -331.50112575 595.35388488 -327.09375 592.37890625 C-324.99377804 590.99590233 -322.85536955 589.84587855 -320.625 588.6875 C-310.1922862 582.91924186 -301.5798022 574.1751752 -293 566 C-292.04738281 565.09636719 -291.09476563 564.19273437 -290.11328125 563.26171875 C-288 561 -288 561 -288 559 C-287.01 558.67 -286.02 558.34 -285 558 C-284.375 555.125 -284.375 555.125 -284 552 C-286.44517562 549.55482438 -287.96198557 549.37942047 -291.3125 548.625 C-296.96678941 547.29137699 -302.46581954 545.65390797 -307.9921875 543.8671875 C-316.18851275 541.50409113 -316.18851275 541.50409113 -319.25 543.375 Z M87.0625 576.25 C86.68250854 576.31920654 86.68250854 576.31920654 84.75952148 576.66943359 C80.31182223 577.49715178 75.94470824 578.49591063 71.5625 579.625 C65.50185927 581.10003614 59.5662225 581.45997653 53.35375977 581.62158203 C42.45612445 581.96908161 42.45612445 581.96908161 38.28515625 585.41796875 C34.30099388 591.18418458 31.04415743 597.29180833 27.83203125 603.51171875 C26 607 26 607 24.35546875 609.6328125 C22.91442823 612.14944234 22.19702088 614.3786718 21.5 617.1875 C21.25378906 618.14140625 21.00757813 619.0953125 20.75390625 620.078125 C20.50511719 621.04234375 20.25632812 622.0065625 20 623 C19.49029622 624.81566122 18.97005752 626.62841015 18.4375 628.4375 C18.20933594 629.21996094 17.98117187 630.00242187 17.74609375 630.80859375 C17 633 17 633 15.953125 634.7734375 C14.51399415 638.13534154 14.48875968 641.58218845 14.3125 645.1875 C14.26544922 645.92419922 14.21839844 646.66089844 14.16992188 647.41992188 C14.06565705 649.27788686 14.02733213 651.1393125 14 653 C15 654 15 654 17.3125 654.25 C20.55293514 653.94856417 21.48136634 653.00009143 24 651 C25.61002296 650.3291571 27.22028519 649.6588799 28.83203125 648.9921875 C41.61352938 643.142637 52.71562323 634.36821285 62.94140625 624.84765625 C65 623 65 623 68 621 C68 620.34 68 619.68 68 619 C68.99 618.67 69.98 618.34 71 618 C72.578125 616.43359375 72.578125 616.43359375 74.25 614.4375 C74.86617187 613.70917969 75.48234375 612.98085938 76.1171875 612.23046875 C76.73851562 611.49441406 77.35984375 610.75835938 78 610 C79.12399804 608.74909896 80.24898764 607.49908813 81.375 606.25 C85.90069145 601.07342259 89.95684126 595.55660152 94 590 C94.64066406 589.1440625 95.28132812 588.288125 95.94140625 587.40625 C96.49699219 586.6328125 97.05257812 585.859375 97.625 585.0625 C98.11226562 584.39347656 98.59953125 583.72445312 99.1015625 583.03515625 C100.28389178 580.35692341 99.79644392 578.75876659 99 576 C94.9600737 574.44698937 91.16581475 575.46161797 87.0625 576.25 Z " fill="#2563eb" transform="translate(901,86)"/>
<path d="M0 0 C2.47023755 2.47023755 1.81284822 7.31757859 1.81640625 10.5625 C0.48970997 16.1485896 -3.28674513 18.09518539 -7.984375 21 C-14.44565784 25.28520313 -15.80737371 29.89924394 -17.3515625 37.171875 C-18.19468663 42.14935479 -18.76590059 47.14334577 -19.17822266 52.17480469 C-19.59635043 56.58434078 -20.61186776 59.31777517 -23 63 C-24.47708749 68.73072551 -24.33054364 73.62728914 -21.88671875 79.015625 C-19.05531009 85.35199328 -18.4236031 91.36691293 -17.87695312 98.19140625 C-17.30872669 104.22177333 -16.46931329 110.36746984 -12.16796875 114.953125 C-11.51441406 115.38109375 -10.86085938 115.8090625 -10.1875 116.25 C-9.48882813 116.724375 -8.79015625 117.19875 -8.0703125 117.6875 C-7.38710937 118.120625 -6.70390625 118.55375 -6 119 C-0.06369427 122.87261146 -0.06369427 122.87261146 1 125 C1.12176503 126.80948495 1.17545792 128.62396271 1.1875 130.4375 C1.20167969 131.40558594 1.21585938 132.37367188 1.23046875 133.37109375 C1 136 1 136 -1 139 C-9.75681506 140.53798492 -17.59258976 138.3796314 -25 133.75 C-34.16388619 126.79808634 -35.93306191 115.92973115 -37.5 105.1875 C-39.05609861 94.62331945 -40.97279103 84.04081346 -47 75 C-47.94589393 69.42362533 -47.02078952 65.03512711 -44.16796875 60.21484375 C-39.44974495 51.26757654 -38.50373531 41.68951129 -37.0703125 31.796875 C-35.38365164 21.12208717 -32.83291609 12.34023377 -24.08203125 5.47265625 C-23.73849609 5.22966797 -23.73849609 5.22966797 -22 4 C-21.40574219 3.56558594 -20.81148437 3.13117188 -20.19921875 2.68359375 C-14.03778341 -1.10298429 -7.00535168 -0.5798188 0 0 Z " fill="#2563eb" transform="translate(1159,348)"/>
<path d="M0 0 C7.02299625 2.44946201 13.10871788 7.67394917 17 14 C18.36200952 17.60776568 19.20224719 21.23346709 20 25 C20.350625 26.11375 20.70125 27.2275 21.0625 28.375 C21.90822847 31.64515009 22.45038136 34.78703947 22.9375 38.125 C25.69160227 56.73670673 25.69160227 56.73670673 30 62 C31.93813833 66.45771816 32.24591194 69.30387039 31 74 C30.05007438 76.35416349 29.05047644 78.68895182 28 81 C25.31777514 87.15333938 24.07108383 93.32300795 23.1875 99.9375 C21.21424369 113.06194896 18.41033378 124.96968333 8.5625 134.3125 C2.47089444 138.32404513 -2.28296462 139.44278534 -9.4375 139.1875 C-10.16904297 139.17396484 -10.90058594 139.16042969 -11.65429688 139.14648438 C-13.43652422 139.11153874 -15.21836573 139.05774805 -17 139 C-19.11105585 134.77788831 -18.64128011 129.57446476 -18 125 C-15.85351823 121.51660917 -12.77037903 120.25155234 -8.9375 119 C-4.18003519 117.38043751 -1.72552038 114.08828057 1 110 C1.17687209 108.0051148 1.2676392 106.00220833 1.3125 104 C1.66684721 97.71361805 2.81235065 91.95372285 4.4375 85.875 C4.65510986 85.05773437 4.87271973 84.24046875 5.09692383 83.3984375 C6.72573108 77.51782464 6.72573108 77.51782464 8.09008789 74.94189453 C10.88702659 68.97279058 6.07809182 59.37666493 4.171875 53.40625 C2.58563601 48.11878669 1.83737256 43.34008567 1.625 37.8125 C1.15608466 29.56139357 -1.47563916 25.15062712 -7.4375 19.625 C-10.43320036 17.19959708 -13.28038593 16.06274688 -17 15 C-18.38226016 12.23547967 -18.09525387 9.9538637 -18.0625 6.875 C-18.05347656 5.77929688 -18.04445313 4.68359375 -18.03515625 3.5546875 C-18.02355469 2.71164062 -18.01195312 1.86859375 -18 1 C-13.04218687 -1.47890657 -5.42743428 -0.72642268 0 0 Z " fill="#2563eb" transform="translate(1250,348)"/>
<path d="M0 0 C-0.165 0.969375 -0.33 1.93875 -0.5 2.9375 C-1.50744319 10.27109384 -1.77985325 16.35267188 2 23 C6.30208025 27.08146075 10.0369707 29.28635993 16 29.25 C16.845625 29.25515625 17.69125 29.2603125 18.5625 29.265625 C21.14952829 28.98370525 22.7137718 28.1815381 25 27 C27.75 27.375 27.75 27.375 30 28 C30.72437397 36.33030062 27.45825061 43.96264599 22.41015625 50.5390625 C19.95782576 53.07970406 17.16823281 54.51553517 14 56 C12.948125 56.5775 11.89625 57.155 10.8125 57.75 C4.92979421 60.12418619 -1.777784 60.07102066 -7.75 58.0859375 C-16.98170738 53.72339286 -24.06080479 47.59108398 -28 38 C-29.91307839 29.19342685 -29.42550929 21.55134006 -24.671875 13.84765625 C-18.52602563 5.16260069 -11.14409681 -0.68229164 0 0 Z " fill="#2563eb" transform="translate(1197,377)"/>
<path d="M0 0 C3.24347217 0.5056221 6.46735814 0.85843106 9.73266602 1.17773438 C17.0610485 1.90121456 24.23542945 2.95500271 31.4453125 4.46484375 C32.20602051 4.62259277 32.96672852 4.7803418 33.75048828 4.94287109 C38.40087412 5.95807466 42.85636743 7.28696884 47.34985352 8.85473633 C49.3828125 9.52734375 49.3828125 9.52734375 52.37890625 10.17578125 C55.65052689 11.14941555 57.13347813 11.90240076 59.3828125 14.52734375 C61.04072616 20.54726207 60.98590318 26.86794298 61.1875 33.06933594 C61.3719682 35.39086826 61.787695 37.34940102 62.4765625 39.56640625 C63.3828125 42.52734375 63.3828125 42.52734375 62.3828125 44.52734375 C56.09945047 44.98710195 51.81600254 42.69527497 46.2578125 40.02734375 C41.97755742 38.1915899 37.49071427 37.3295947 32.953125 36.34765625 C29.33984863 35.5174724 25.81647032 34.50246536 22.2578125 33.46484375 C-8.26422256 25.15305696 -43.33305917 28.21510199 -74.64355469 29.38330078 C-77.91863591 29.50202147 -81.19260232 29.5984656 -84.46875 29.6796875 C-98.65441088 30.10883589 -112.61079794 32.3432091 -126.6171875 34.52734375 C-126.6171875 35.84734375 -126.6171875 37.16734375 -126.6171875 38.52734375 C-125.81796875 38.74648438 -125.01875 38.965625 -124.1953125 39.19140625 C-117.14564016 41.22687502 -110.81870366 43.74763344 -104.32421875 47.15234375 C-101.47107679 48.60155871 -98.62196238 49.69371936 -95.609375 50.75 C-92.30838998 52.03803141 -89.20862497 53.72394987 -86.05859375 55.33984375 C-83.9101433 56.38485005 -81.80648343 57.23943901 -79.5546875 58.02734375 C-76.51268207 59.10063196 -73.84594028 60.47261452 -71.0546875 62.08984375 C-67.28434398 64.26302786 -63.84645093 65.53751614 -59.6171875 66.52734375 C-59.6171875 67.18734375 -59.6171875 67.84734375 -59.6171875 68.52734375 C-59.04871094 68.70910156 -58.48023438 68.89085937 -57.89453125 69.078125 C-52.34242278 70.88557266 -46.96095533 72.88286777 -41.7109375 75.46484375 C-35.69557335 78.33785349 -29.51459569 79.99321537 -23.0703125 81.59765625 C-19.6171875 82.52734375 -19.6171875 82.52734375 -17.23144531 83.56225586 C-12.65241671 85.25266491 -7.9518021 84.95261266 -3.1171875 84.96484375 C-2.58013184 84.96713989 -2.58013184 84.96713989 0.13769531 84.97875977 C7.63531441 84.87390192 13.25178521 83.92126325 19.9921875 80.5234375 C22.3828125 79.52734375 22.3828125 79.52734375 24.52734375 79.6875 C30.25603284 82.28048559 33.45370246 89.08717553 36.20703125 94.4140625 C37.3828125 96.52734375 37.3828125 96.52734375 39.08984375 98.484375 C40.3828125 100.52734375 40.3828125 100.52734375 40.3359375 103.140625 C39.3828125 105.52734375 39.3828125 105.52734375 37.5546875 106.8203125 C31.60372671 109.01832866 25.86151139 110.27431797 19.5703125 111.08984375 C16.79871021 111.47025975 14.16721994 112.02421126 11.4453125 112.65234375 C-0.84637178 114.90852662 -14.58621398 114.69378263 -26.6015625 111.3125 C-30.01581871 110.42355505 -33.36487413 110.0034148 -36.8671875 109.58984375 C-44.05012645 108.6369232 -49.61574259 106.52830702 -55.6171875 102.52734375 C-56.6484375 102.25921875 -57.6796875 101.99109375 -58.7421875 101.71484375 C-62.63679501 100.67573628 -65.82823776 98.82589842 -69.30078125 96.81640625 C-72.2198972 95.19194037 -75.22780028 93.88378554 -78.29296875 92.5625 C-80.81802484 91.43789518 -83.27669784 90.2143733 -85.7421875 88.96484375 C-89.64435688 86.99277966 -93.5862078 85.22459836 -97.6171875 83.52734375 C-97.99294922 83.34880859 -97.99294922 83.34880859 -99.89453125 82.4453125 C-106.41364877 79.35730946 -113.03768266 76.88109017 -119.86669922 74.58276367 C-123.10253646 73.48147884 -125.75593456 72.43484571 -128.6171875 70.52734375 C-130.46728516 69.88891602 -130.46728516 69.88891602 -132.53125 69.34375 C-132.90930786 69.24187378 -132.90930786 69.24187378 -134.82250977 68.72631836 C-135.62100342 68.51628174 -136.41949707 68.30624512 -137.2421875 68.08984375 C-138.88981864 67.6463689 -140.53696284 67.20108067 -142.18359375 66.75390625 C-142.92295166 66.55619629 -143.66230957 66.35848633 -144.42407227 66.15478516 C-146.70716742 65.50160086 -148.93949035 64.75175251 -151.1796875 63.96484375 C-161.07697135 60.53586352 -171.65708136 58.48695359 -182.00390625 57.01953125 C-184.6171875 56.52734375 -184.6171875 56.52734375 -187.47265625 55.55859375 C-191.02332104 54.39415213 -194.56548459 53.74871823 -198.2421875 53.15234375 C-204.79182966 52.04856894 -211.29875633 50.80150899 -217.8046875 49.46484375 C-229.34621687 47.11821661 -240.86647492 45.4386235 -252.6171875 44.52734375 C-251.6171875 41.52734375 -251.6171875 41.52734375 -249.90234375 40.5 C-249.16886719 40.19964844 -248.43539062 39.89929688 -247.6796875 39.58984375 C-246.86628906 39.25210938 -246.05289063 38.914375 -245.21484375 38.56640625 C-244.35761719 38.22351563 -243.50039063 37.880625 -242.6171875 37.52734375 C-241.79089844 37.18445313 -240.96460938 36.8415625 -240.11328125 36.48828125 C-234.68443754 34.26237037 -229.19887703 32.32960237 -223.6171875 30.52734375 C-222.39515625 30.11613281 -221.173125 29.70492187 -219.9140625 29.28125 C-190.7545112 19.4864668 -190.7545112 19.4864668 -177.23828125 16.5625 C-172.74507659 15.58402623 -168.34680861 14.36312033 -163.9296875 13.08984375 C-157.23461699 11.19040938 -150.5581425 9.56199047 -143.73046875 8.203125 C-140.6171875 7.52734375 -140.6171875 7.52734375 -137.53515625 6.5703125 C-132.0177306 4.95913626 -126.2966686 4.32244024 -120.6171875 3.52734375 C-119.3885498 3.35291748 -118.15991211 3.17849121 -116.89404297 2.9987793 C-107.03351007 1.63820132 -97.17332758 0.67452798 -87.25 -0.078125 C-83.65769201 -0.35659022 -80.17178308 -0.8794263 -76.6171875 -1.47265625 C-51.48628351 -3.49010246 -24.92788635 -4.27959954 0 0 Z " fill="#2563eb" transform="translate(927.6171875,394.47265625)"/>
</svg>
